<?xml version="1.0" encoding="UTF-8"?>
<svg version="1.1" viewBox="0 0 2048 890" width="1564" height="680" xmlns="http://www.w3.org/2000/svg">
<path transform="translate(0)" d="m0 0h2048v890h-2048z" fill="#FFFFFE"/>
<path transform="translate(1387,72)" d="m0 0h133v163l4-1h102l4 8 23 58 84 212 1 3 4-10 17-50 34-101 33-98 7-21 1-1h133l-3 10-21 55-22 57-18 47-75 195-18 47-15 39-11 27-12 25-11 18-8 11-11 13-12 11-14 9-17 8-16 5-15 3-25 2h-82l-1-1v-86l1-1 57-1 17-3 13-5 9-7 7-9 8-16 6-18-1-5-23-54-13-30-69-161-23-53-23-54-5-12-1 143v208h-133v-63l-5 5-8 10-12 13-14 12-18 12-15 8-21 8-23 5-8 1h-26l-19-3-21-6-18-8-11-6-13-9-11-9-10-9-7-7-11-14-10-14-12-21-7-15-8 16-10 18-12 17-9 11-12 13-11 9-10 8-18 11-20 9-21 6-19 3h-26l-19-3-21-6-16-7-15-8-14-10-14-12-12-12-11-14-7-10-9-15-8-15-10-25v46l-1 80h-135l-1-402-6 13-46 108-24 56-23 54-24 56-4 8h-91l-6-12-46-108-45-105-23-54-7-16-1 402h-136v-555h183l22 51 16 38 69 162 18 42v2l2-1 13-31 111-259 2-4h182l1 212v53l8-22 10-20 12-19 11-14 11-12 11-11 14-11 18-11 17-8 15-5 25-5h34l25 5 19 7 23 12 11 8 11 9 10 9 11 12 13 17 13 22 9 19 1 1 11-23 11-18 9-12 11-13 15-15 17-13 17-10 18-8 16-5 21-4h34l25 5 19 7 23 12 14 10 15 13 9 9 9 11 4 5v2h2z" fill="#3266D8"/>
<path transform="translate(950,322)" d="m0 0h30l19 5 13 7 12 11 6 7 8 14 6 13v2l-3-1-6-9-9-3h-23l-9 3-3 5h-3l-2 7-5 10-3 14-1 1v72l3 9 1 7 3 6v3l3 1 2 6 8 7v2l8 1h18l8-2 3-3h2l1-4 3-2 2-6h2l-3 9-8 16-7 9-7 8-14 9-11 5-13 3-17 1-21-2-16-6-8-5-10-8-9-10-8-14-6-15-5-19-3-25v-40l1-2 2-18 5-20 6-15 8-13 9-10 7-7 14-8 14-5z" fill="#FFFFFE"/>
<path transform="translate(1261,322)" d="m0 0h29l16 4 16 8 8 7 9 9 8 13 7 15-1 3-8-10-9-3h-23l-9 3-3 5h-3l-1 6-1 2h-2l-1 7-1 2h-2v7l-2 8h-2l1 72 3 7 1 9 3 4v5l4 2 1 7 4 2 5 4 8 2h17l8-2 5-4 4-4 2-6 2-1-1 6-8 16-6 9-10 11-10 7-15 7-12 3-17 1-16-1-12-3-17-8-12-11-7-7-9-15-7-19-4-18-2-15v-48l2-17 5-21 6-15 7-12 7-9 10-10 14-8 15-5z" fill="#FFFFFE"/>
<path transform="translate(1313,367)" d="m0 0h23l9 3 9 11 4 13 3 18 2 24v16l-3 29-5 22-3 4-2 6-8 7-3 2-6 1h-17l-8-2-9-7-3-8-2-1-2-6-2-3-2-12-2-4v-72h2l2-15h2l2-9h2l2-8 3-1 3-5z" fill="#485471"/>
<path transform="translate(1e3 367)" d="m0 0h23l9 3 10 14 4 17 2 13 1 14v27l-1 17-5 26-2 7h-2l-2 7-3 1-1 4-7 5-6 1h-18l-8-2-10-10-1-5-2-1-4-9-3-14-1-2v-72l2-6 2-9 7-15 1-2h3l2-5 6-3z" fill="#485471"/>
</svg>
